<svg width="1600" height="900" viewBox="0 0 1600 900"
     xmlns="http://www.w3.org/2000/svg">

  <defs>
    <!-- Degradado blanco → celeste → negro -->
    <linearGradient id="bgGrad" x1="0" y1="0" x2="0" y2="1">
      <stop offset="0%" stop-color="#ffffff"/>
      <stop offset="35%" stop-color="#eef6fc"/>
      <stop offset="60%" stop-color="#cfe4f5"/>
      <stop offset="100%" stop-color="#000000"/>
    </linearGradient>
  </defs>

  <!-- Fondo -->
  <rect width="1600" height="900" fill="url(#bgGrad)"/>

  <!-- Ondas FEM -->
  <g fill="none" stroke="#9bbfe0" stroke-width="0.9" opacity="0.35">
    <path d="M-100 280 C 250 190, 550 410, 900 320 S 1350 240, 1700 320"/>
    <path d="M-100 320 C 250 230, 550 450, 900 360 S 1350 280, 1700 360"/>
    <path d="M-100 360 C 250 270, 550 490, 900 400 S 1350 320, 1700 400"/>
    <path d="M-100 400 C 250 310, 550 530, 900 440 S 1350 360, 1700 440"/>
    <path d="M-100 440 C 250 350, 550 570, 900 480 S 1350 400, 1700 480"/>
    <path d="M-100 480 C 250 390, 550 610, 900 520 S 1350 440, 1700 520"/>
    <path d="M-100 520 C 250 430, 550 650, 900 560 S 1350 480, 1700 560"/>
    <path d="M-100 560 C 250 470, 550 690, 900 600 S 1350 520, 1700 600"/>
    <path d="M-100 600 C 250 510, 550 730, 900 640 S 1350 560, 1700 640"/>
    <path d="M-100 640 C 250 550, 550 770, 900 680 S 1350 600, 1700 680"/>
    <path d="M-100 680 C 250 590, 550 810, 900 720 S 1350 640, 1700 720"/>
    <path d="M-100 720 C 250 630, 550 850, 900 760 S 1350 680, 1700 760"/>
    <path d="M-100 760 C 250 670, 550 890, 900 800 S 1350 720, 1700 800"/>
  </g>

  <!-- MALLA FEM TRIANGULAR (MUY ALTA DENSIDAD) -->
  <g stroke="#86add0" stroke-width="0.4" opacity="0.35" fill="none">

    <!-- Generada manualmente tipo patrón FEM -->
    <!-- y inicial = 560, paso = 30 -->
    <!-- x paso = 35 -->

    <!-- filas -->
    <!-- fila 1 -->
    <polygon points="50,560 85,590 120,560"/>
    <polygon points="85,590 120,620 155,590"/>
    <polygon points="120,560 155,590 190,560"/>
    <polygon points="155,590 190,620 225,590"/>
    <polygon points="190,560 225,590 260,560"/>
    <polygon points="225,590 260,620 295,590"/>

    <!-- fila 2 -->
    <polygon points="260,560 295,590 330,560"/>
    <polygon points="295,590 330,620 365,590"/>
    <polygon points="330,560 365,590 400,560"/>
    <polygon points="365,590 400,620 435,590"/>
    <polygon points="400,560 435,590 470,560"/>
    <polygon points="435,590 470,620 505,590"/>

    <!-- fila 3 -->
    <polygon points="505,560 540,590 575,560"/>
    <polygon points="540,590 575,620 610,590"/>
    <polygon points="575,560 610,590 645,560"/>
    <polygon points="610,590 645,620 680,590"/>
    <polygon points="645,560 680,590 715,560"/>
    <polygon points="680,590 715,620 750,590"/>

    <!-- fila 4 -->
    <polygon points="750,560 785,590 820,560"/>
    <polygon points="785,590 820,620 855,590"/>
    <polygon points="820,560 855,590 890,560"/>
    <polygon points="855,590 890,620 925,590"/>
    <polygon points="890,560 925,590 960,560"/>
    <polygon points="925,590 960,620 995,590"/>

    <!-- fila 5 -->
    <polygon points="995,560 1030,590 1065,560"/>
    <polygon points="1030,590 1065,620 1100,590"/>
    <polygon points="1065,560 1100,590 1135,560"/>
    <polygon points="1100,590 1135,620 1170,590"/>
    <polygon points="1135,560 1170,590 1205,560"/>
    <polygon points="1170,590 1205,620 1240,590"/>

    <!-- fila 6 -->
    <polygon points="1240,560 1275,590 1310,560"/>
    <polygon points="1275,590 1310,620 1345,590"/>
    <polygon points="1310,560 1345,590 1380,560"/>
    <polygon points="1345,590 1380,620 1415,590"/>
    <polygon points="1380,560 1415,590 1450,560"/>
    <polygon points="1415,590 1450,620 1485,590"/>

  </g>

  <!-- NODOS FEM -->
  <g fill="#86add0" opacity="0.45">
    <!-- nodos distribuidos -->
    <circle cx="50" cy="560" r="1.6"/>
    <circle cx="85" cy="590" r="1.6"/>
    <circle cx="120" cy="560" r="1.6"/>
    <circle cx="155" cy="590" r="1.6"/>
    <circle cx="190" cy="560" r="1.6"/>
    <circle cx="225" cy="590" r="1.6"/>

    <circle cx="400" cy="560" r="1.6"/>
    <circle cx="435" cy="590" r="1.6"/>
    <circle cx="470" cy="560" r="1.6"/>
    <circle cx="505" cy="590" r="1.6"/>

    <circle cx="750" cy="560" r="1.6"/>
    <circle cx="785" cy="590" r="1.6"/>
    <circle cx="820" cy="560" r="1.6"/>

    <circle cx="1100" cy="590" r="1.6"/>
    <circle cx="1135" cy="560" r="1.6"/>
    <circle cx="1170" cy="590" r="1.6"/>
  </g>

</svg>
